<svg width="17" height="16" viewBox="0 0 17 16" fill="none" xmlns="http://www.w3.org/2000/svg">
<path d="M3.54163 12V14.5107L4.61475 13.9047L7.98783 12H11.3333C12.1146 12 12.75 11.402 12.75 10.6667V5.33333C12.75 4.598 12.1146 4 11.3333 4H2.83329C2.052 4 1.41663 4.598 1.41663 5.33333V10.6667C1.41663 11.402 2.052 12 2.83329 12H3.54163ZM2.83329 5.33333H11.3333V10.6667H7.59542L4.95829 12.156V10.6667H2.83329V5.33333Z" fill="#8C8C8C"/>
<path d="M14.1667 1.33334H5.66667C4.88538 1.33334 4.25 1.93134 4.25 2.66668H12.75C13.5313 2.66668 14.1667 3.26468 14.1667 4.00001V9.33334C14.948 9.33334 15.5833 8.73534 15.5833 8.00001V2.66668C15.5833 1.93134 14.948 1.33334 14.1667 1.33334Z" fill="#8C8C8C"/>
</svg>
